<?xml version="1.0" encoding="utf-8"?>
<!-- Generator: Adobe Illustrator 27.0.0, SVG Export Plug-In . SVG Version: 6.00 Build 0)  -->
<svg version="1.1" id="图层_1" xmlns="http://www.w3.org/2000/svg" xmlns:xlink="http://www.w3.org/1999/xlink" x="0px" y="0px"
	 viewBox="0 0 198.4 198.4" style="enable-background:new 0 0 198.4 198.4;" xml:space="preserve">
<style type="text/css">
	.st0{fill:#FFFFFF;}
</style>
<path class="st0" d="M167.8,0H30.5C13.8,0,0,13.5,0,30.3v137.8c0,16.9,13.8,30.4,30.5,30.4h137.3c16.8,0,30.4-13.5,30.5-30.3V30.3
	C198.2,13.5,184.5,0,167.8,0L167.8,0z M163.1,86.1c-12.3,0.1-24.6-3.8-34.7-10.9c0,15.6,0,31.2,0.2,46.7c0,2.1,0.1,4.2-0.1,6.3
	c-0.5,7.6-3,15-6.7,21.6c-3.3,5.7-7.7,10.8-13.1,14.7c-6.8,5.1-15.4,7.9-23.9,8.1c-4.4,0.1-8.7-0.1-12.9-1.1
	c-5.9-1.3-11.7-3.8-16.7-7.2c-0.1-0.1-0.3-0.2-0.3-0.3c-5.4-3.8-9.8-8.6-13.1-14.3c-4.5-7.4-6.7-16.3-6.4-25c0.2-8,2.6-16,6.7-22.8
	c3.8-6.3,9.1-11.6,15.4-15.4c9-5.6,20-7.9,30.5-6.4v6c0.1,2.5,0,5,0.1,7.3V106c-3.2-1.1-6.6-1.1-9.9-0.3c-3.9,0.9-7.6,2.6-10.7,5.2
	c-1.9,1.6-3.5,3.5-4.6,5.7c-1.9,3.7-2.6,7.9-2.2,12.1c0.5,4,2.2,7.8,4.8,10.9c1.8,2.1,4,3.9,6.3,5.3c6.4,3.6,14.8,3.3,21-0.7
	c6-3.8,9.9-10.6,9.9-17.7V62.5c0.1-12.2,0-24.4,0.1-36.6h25.2c-0.1,2.2,0.2,4.3,0.6,6.4h0.1c0.7,3.6,2,6.9,3.7,10.2
	c2.6,5,6.3,9.4,11.1,12.3c0.3,0.2,0.5,0.5,0.8,0.7c3.6,2.2,7.4,3.9,11.5,4.7c2.4,0.5,4.9,0.7,7.2,0.8L163.1,86.1L163.1,86.1z"/>
</svg>
