<?xml version="1.0" standalone="no"?><!DOCTYPE svg PUBLIC "-//W3C//DTD SVG 1.1//EN" "http://www.w3.org/Graphics/SVG/1.1/DTD/svg11.dtd"><svg t="1709197770716" class="icon" viewBox="0 0 1024 1024" version="1.1" xmlns="http://www.w3.org/2000/svg" p-id="26231" xmlns:xlink="http://www.w3.org/1999/xlink" width="200" height="200"><path d="M852.980436 0H171.019564A171.019564 171.019564 0 0 0 0 171.019564v681.960872a171.019564 171.019564 0 0 0 171.019564 171.019564h681.960872a171.019564 171.019564 0 0 0 171.019564-171.019564V171.019564a171.019564 171.019564 0 0 0-171.019564-171.019564zM511.986427 774.69148a262.705053 262.705053 0 1 1 262.705053-262.705053 262.325009 262.325009 0 0 1-262.705053 262.705053zM829.309156 277.241716a61.377021 61.377021 0 1 1 17.957055-43.43354 61.295583 61.295583 0 0 1-17.957055 43.43354z" p-id="26232"></path><path d="M511.986427 341.251895c-93.938603 0-170.734532 76.795928-170.734532 170.734532S418.047824 682.720959 511.986427 682.720959 682.720959 606.006468 682.720959 511.986427s-76.71449-170.734532-170.734532-170.734532z" p-id="26233"></path></svg>