<?xml version="1.0" encoding="utf-8"?>
<!-- Generator: Adobe Illustrator 27.0.0, SVG Export Plug-In . SVG Version: 6.00 Build 0)  -->
<svg version="1.1" id="图层_1" xmlns="http://www.w3.org/2000/svg" xmlns:xlink="http://www.w3.org/1999/xlink" x="0px" y="0px"
	 viewBox="0 0 198.4 198.4" style="enable-background:new 0 0 198.4 198.4;" xml:space="preserve">
<style type="text/css">
	.st0{fill:#FFFFFF;}
</style>
<path class="st0" d="M166.1,0H31C14.1,0,0,14.2,0,31.2v137.5c0,15.6,14.1,29.8,31,29.8h136.5c16.9,0,31-14.2,31-31.2l0-136.1
	C197,14.2,182.9,0,166.1,0z M159,133.2c-1.4,4.3-4.2,5.7-11.3-8.5c-1.4,4.3-8.4,15.6-9.9,17c0,0,8.4,0,8.4,8.5
	c2.8,4.3,1.4,8.5,1.4,8.5c-1.4,4.3-23.9,17-45,1.4h-8.4c0,0-16.9,14.2-39.4,4.3c-11.3-4.3-8.4-12.8-7-14.2c-1.4-2.8,1.4-7.1,8.4-8.5
	c0,0-7-7.1-9.9-17c0,0-5.6,11.3-11.3,9.9c-4.2-1.4-4.2-29.8,11.3-42.5c0,0-4.2-7.1,0-11.3c0,0-1.4-4.3,4.2-8.5
	c1.4,0,1.4-43.9,43.6-45.4c18.3-1.4,45,11.3,46.4,45.4c0,0,8.4,5.7,4.2,18.4C147.8,93.5,164.7,113.4,159,133.2z"/>
</svg>
