<?xml version="1.0" standalone="no"?><!DOCTYPE svg PUBLIC "-//W3C//DTD SVG 1.1//EN" "http://www.w3.org/Graphics/SVG/1.1/DTD/svg11.dtd"><svg t="1709197866838" class="icon" viewBox="0 0 1024 1024" version="1.1" xmlns="http://www.w3.org/2000/svg" p-id="28324" xmlns:xlink="http://www.w3.org/1999/xlink" width="200" height="200"><path d="M0.1 0h1024v1023.8H0.1z" fill="#FFFFFF" p-id="28325"></path><path d="M610.7 817.6c0-38.7 0.1-75.1 0-111.5-0.1-29.6-6.3-35.9-35.4-36.1-43.2-0.2-86.4-0.2-129.5 0-29.6 0.1-35.2 5.4-35.7 35.7-0.6 36.3-0.1 72.7-0.1 110.7-8.2 0.9-13.9 2.1-19.6 2.2-39.1 0.2-78.3 0.5-117.4 0-46.4-0.6-57.4-12.2-57.1-57.7 0.3-41.1-0.4-82.3 0.8-123.4 0.2-8.2 4.5-18.5 10.5-24C305 541 383.6 469 462.3 397.1c31.4-28.7 68.4-29 99.9 0 78.9 72.7 157.3 145.8 235.4 219.3 5.5 5.2 9.3 14.8 9.5 22.5 0.9 43.2 0.7 86.4 0.3 129.5-0.3 28.6-14.4 47.7-40.8 48.7-51.1 1.9-102.2 0.5-155.9 0.5zM502.8 177.5c38.5-0.1 58.5 12.7 76.5 30.1 69.3 67.1 138.8 134.1 208.1 201.2 32 31 63.9 62 95.9 93 3.4 3.3 6.7 6.6 9.9 10.2 17.8 20.1 20.2 41.8 6.6 58.7-14.3 17.8-43 22-64.4 8.9-5.7-3.5-10.8-8-15.7-12.6-79-74.6-157.9-149.3-236.7-224.1-58.3-55.4-80.7-55.8-139.6-1.1-78.6 73-156.6 146.7-235.8 219.1-11.2 10.2-27.2 17.2-42.1 20.7-19.6 4.5-35.8-5.4-44.9-23.5-9.2-18.1-5.5-35.7 7.4-50.8 7.4-8.7 16.2-16.2 24.5-24 97.1-90.8 194.4-181.4 291.3-272.4 20.4-19.1 42.5-33.1 59-33.4z m0 0" fill="" p-id="28326"></path><path d="M512.1 1012.1c-67.5 0-133-13.2-194.7-39.3-59.6-25.2-113.1-61.3-159-107.2-45.9-45.9-82-99.4-107.2-159C25.1 645 11.9 579.4 11.9 511.9s13.2-133 39.3-194.7c25.2-59.6 61.3-113.1 107.2-159s99.4-82 159-107.2c61.7-26.1 127.2-39.3 194.7-39.3s133 13.2 194.7 39.3c59.6 25.2 113.1 61.3 159 107.2 45.9 45.9 82 99.4 107.2 159 26.1 61.7 39.3 127.2 39.3 194.7S999.1 645 973 706.6c-25.2 59.6-61.3 113.1-107.2 159-45.9 45.9-99.4 82-159 107.2-61.6 26.1-127.2 39.3-194.7 39.3z m0-956.1c-61.5 0-121.3 12-177.5 35.8-54.3 23-103.1 55.8-144.9 97.7S114.9 280.2 92 334.4c-23.8 56.2-35.8 115.9-35.8 177.5 0 61.6 12.1 121.3 35.8 177.5 23 54.3 55.8 103.1 97.7 144.9s90.6 74.8 144.9 97.7c56.2 23.8 115.9 35.8 177.5 35.8s121.3-12.1 177.5-35.8c54.3-23 103.1-55.8 144.9-97.7 41.9-41.9 74.8-90.6 97.7-144.9C956 633.2 968 573.5 968 511.9c0-61.6-12.1-121.3-35.8-177.5-23-54.3-55.8-103.1-97.7-144.9-41.9-41.9-90.6-74.8-144.9-97.7C633.4 68 573.7 56 512.1 56z" fill="" p-id="28327"></path></svg>