<?xml version="1.0" encoding="utf-8"?>
<!-- Generator: Adobe Illustrator 27.0.0, SVG Export Plug-In . SVG Version: 6.00 Build 0)  -->
<svg version="1.1" id="图层_1" xmlns="http://www.w3.org/2000/svg" xmlns:xlink="http://www.w3.org/1999/xlink" x="0px" y="0px"
	 viewBox="0 0 198.4 198.4" style="enable-background:new 0 0 198.4 198.4;" xml:space="preserve">
<style type="text/css">
	.st0{fill:#FFFFFF;}
</style>
<path class="st0" d="M64.7,64.8c-3.6,0-7.1,2.4-7.1,5.9c0,3.6,3.6,5.9,7.1,5.9c3.6,0,5.9-2.4,5.9-5.9C70.7,67.1,68.3,64.8,64.7,64.8
	z M98,76.6c3.6,0,5.9-2.4,5.9-5.9c0-3.6-2.4-5.9-5.9-5.9c-3.5,0-7.1,2.4-7.1,5.9C90.8,74.3,94.4,76.6,98,76.6z M113.4,99.2
	c-2.4,0-4.7,2.4-4.7,4.7c0,2.4,2.4,4.7,4.7,4.7c3.6,0,5.9-2.4,5.9-4.7C119.4,101.6,117,99.2,113.4,99.2z M169.9,0H29.7
	C13.6,0,0.6,13,0.6,29.1v140.2c0,16.1,13,29.1,29.1,29.1h140.2c16.1,0,29.1-13,29.1-29.1V29.1C199,13,186,0,169.9,0z M80.2,125.3
	c-5.9,0-10.7-1.2-16.6-2.4L47,131.3l4.7-14.3c-11.9-8.3-19-19-19-32.1c0-22.6,21.4-40.4,47.5-40.4c23.3,0,43.8,14.2,47.9,33.3
	c-1.5-0.2-3-0.3-4.6-0.3c-22.6,0-40.4,16.8-40.4,37.5c0,3.4,0.5,6.8,1.5,9.9C83.1,125.3,81.7,125.3,80.2,125.3z M150.2,142l3.6,11.9
	l-13-7.1c-4.7,1.2-9.5,2.4-14.2,2.4c-22.6,0-40.4-15.4-40.4-34.4c0-19,17.8-34.4,40.4-34.4c21.3,0,40.3,15.5,40.3,34.4
	C166.8,125.3,159.7,134.8,150.2,142z M139.5,99.2c-2.4,0-4.7,2.4-4.7,4.7c0,2.4,2.4,4.7,4.7,4.7c3.5,0,5.9-2.4,5.9-4.7
	C145.5,101.6,143.1,99.2,139.5,99.2z"/>
</svg>
