<?xml version="1.0" encoding="utf-8"?>
<!-- Generator: Adobe Illustrator 27.0.0, SVG Export Plug-In . SVG Version: 6.00 Build 0)  -->
<svg version="1.1" id="图层_1" xmlns="http://www.w3.org/2000/svg" xmlns:xlink="http://www.w3.org/1999/xlink" x="0px" y="0px"
	 viewBox="0 0 198.4 198.4" style="enable-background:new 0 0 198.4 198.4;" xml:space="preserve">
<style type="text/css">
	.st0{fill:#FFFFFF;}
</style>
<path class="st0" d="M193.1,11c-1.5-2.1-3.4-4-5.6-5.6C183,2,177.6,0,171.6,0H26.8c-6,0-11.5,2-16,5.4c-2.1,1.5-4,3.4-5.6,5.6
	C2,15.4,0,20.9,0,26.9v144.7c0,6,2,11.5,5.4,15.9c1.5,2.1,3.4,4,5.6,5.6c4.5,3.3,9.9,5.4,15.9,5.4h144.8c6,0,11.5-2,15.9-5.4
	c2.1-1.5,4-3.4,5.6-5.6c3.3-4.5,5.4-9.9,5.4-15.9V26.9C198.4,20.9,196.3,15.4,193.1,11L193.1,11z M71,90.5c3.2-7,6.7-13.9,10.1-20.8
	h11.6c-2.9,5.7-6,11.2-8.1,16.6c4.7-0.3,9-0.5,14-0.8c-2.7,5.4-5.1,10.2-7.5,15c-0.3,0.6-0.6,1.3-1,1.9c-2.5,5-2.5,5,3.1,5.2
	c0.6,0,1.2,0.1,2.2,0.2c-1.5,3.1-2.9,5.8-4.4,8.6c-0.2,0.4-0.9,1-1.3,1c-4.1,0-8.2,0.1-12.3-0.3c-2.9-0.3-4.1-2.6-2.9-5.4
	c1.4-3.5,3.1-6.8,4.6-10.2c0.5-1.2,1.1-2.3,1.8-4.1c-2.3,0-3.9,0-5.6,0C70.7,97.1,69.1,94.9,71,90.5L71,90.5z M14.8,127.6
	c-2.5-4.3-4.7-8.3-6.9-12.2c0-0.5,4.4-14,3.5-29.4h12.2C23.5,85.9,23.9,114.7,14.8,127.6z M43.3,126c0.1,7.2-4.8,7.2-4.8,7.2h-7
	l-7.4-9.8h7.7V69.7h11.6C43.4,87.3,43.4,108.4,43.3,126L43.3,126z M60.2,126.9c-5.6-4.9-8.6-19.4-8.5-41.1h11.5
	c-0.9,11.4,2.8,26.6,2.8,26.6S62.6,119.9,60.2,126.9L60.2,126.9z M85.4,132c-0.3,0.6-1.3,1.2-2,1.2c-5.4,0.1-10.8,0-17,0
	c2.3-4.7,4.3-8.5,6-11.8h18.5C88.8,125.4,87.1,128.8,85.4,132L85.4,132z M132.7,133.2H91c2-4,5.6-11.1,5.6-11.1h11.9V85.6h-7.4V74.2
	H128v11.2h-7.3v36.7h12.1V133.2L132.7,133.2z M187.9,124.8c0,8.4-8.2,8.2-8.2,8.2H169l-4.5-9.6l11.6,0c0,0,0.1-8.7,0-11.7
	c-0.1-2.5-1.5-4.2-4-4.2c-5.2-0.1-10.4,0-16,0V133h-11.5v-25.5h-11.6V95.7h11.3v-10h-7.5V74.4h7.6v-4.8H156l0.1,4.8h9.2
	c0,0,8.5-0.2,8.6,8.1c0,2.5,0.1,10.5,0.1,13.2c9.8,0,14,1.9,14,8.8L187.9,124.8L187.9,124.8z M183,86h-6.2v-5.9
	c0-2.1,1.1-4.1,2.9-5.3c2.1-1.3,4.9-2.1,7.6,0.4c0.1,0.1,0.2,0.2,0.3,0.3C191.3,79.5,188.4,86,183,86L183,86z"/>
<path class="st0" d="M157.3,95.7h7.8V85.6h-7.8L157.3,95.7z"/>
</svg>
